<?xml version="1.0" encoding="UTF-8"?>
<svg id="Layer_1" xmlns="http://www.w3.org/2000/svg" version="1.1" viewBox="0 0 550.83 294.92">
  <!-- Generator: Adobe Illustrator 29.1.0, SVG Export Plug-In . SVG Version: 2.1.0 Build 142)  -->
  <defs>
    <style>
      .st0 {
        fill: #ec008c;
      }
    </style>
  </defs>
  <path d="M597.99,599.01c.22,1.48.43,2.96.65,4.44-1.44.24-1.47.24-1.41-1.19.04-1.08.14-2.16.22-3.24.18,0,.37-.01.55-.02Z"/>
  <path d="M-16.83-216.73c.43,0,.87-.06,1.28.03.17.04.28.38.42.59-.18.09-.39.28-.52.24-.44-.15-.86-.38-1.28-.58.03-.09.07-.18.1-.27Z"/>
  <g>
    <path class="st0" d="M320.21,188.69c-11.19-.34-62.73-.28-70.7-.25-15.43.06-30.85.18-46.28.1-6.51-.03-13.02-.51-19.53-.72-3.31-.11-6.63-.04-9.94-.11-7.76-.17-15.52-.45-23.28-.53-10.66-.11-21.32.07-31.98-.18-5.89-.13-11.78-.74-17.64-1.38-5.75-.63-11.5-1.39-17.19-2.43-3.21-.59-13.59-3.96-15.64-4.6-1.18-.37-2.34-.83-3.46-1.36-11.63-5.58-20.49-14.09-26.16-25.8-2.13-4.4-4.18-8.95-5.38-13.66-.78-3.07-1.79-11.94-1.92-12.97-.69-5.18.81-10.37.95-15.57.01-.42.05-.84.14-1.25,1.59-7.77,3.01-15.58,4.83-23.3,1.83-7.77,5.03-15.03,9.33-21.75,1.95-3.05,3.97-6.06,5.97-9.07,2.09-3.15,5.12-5.39,7.71-8.05,4.52-4.66,9.48-8.8,15.26-11.72,9.07-4.59,18.48-8.33,28.42-10.57,6.5-1.47,13.1-1.72,19.73-1.77,5.69-.04,11.38-.23,17.08-.35,6.1-.13,12.2-.22,18.3-.43,4.13-.14,8.26-.47,12.39-.71,10.54-.59,21.08-1.23,31.62-1.75,9.92-.49,19.84-.92,29.77-1.27,8.9-.31,17.8-.49,26.7-.7,8.59-.21,93.95,1.08,99.7.93,5.06-.13,10.13.19,15.19.32,1.76.05,3.52.07,5.28.21,6.25.51,12.5,1.03,18.74,1.61,4.22.39,8.43.81,12.63,1.36,5.22.68,10.42,1.49,15.63,2.28,2.74.41,15.08,3.55,18.59,4.37,1.23.29,23,6.63,26.44,8.11,10.74,4.61,21.25,9.6,29.8,18.06,4.77,4.72,8.88,9.8,12.45,15.51,4.93,7.9,8.28,31.13,8.32,39.7-1.09,10.61-4.1,20.82-6.58,31.15-1.96,8.15-4.82,15.97-7.51,23.86-2.28,6.7-6.18,12.52-9.72,18.54-1.06,1.8-2.03,3.66-3.25,5.35-3.83,5.31-8.74,9.42-14.14,13.03-6.29,4.2-13.32,6.51-20.37,8.88-2.88.97-5.57,2.59-8.27,4.04-.76.41-4.37,7.94-5.78,10.84-1.69,3.46-3.3,7.02-5.44,10.19-3.32,4.91-6.75,9.83-10.71,14.21-4.8,5.32-10.18,10.11-15.34,15.09-2.32,2.23-4.62,4.51-7.14,6.5-5.61,4.42-12.26,6.89-18.65,9.84-1.11.51-2.4.6-3.52,1.09-1.18.51-3.96,1.35-4.8.14-.85-1.23.12-3.1,1.06-4.65,1.72-2.85,3.58-5.62,5.17-8.54,2-3.69,2.55-7.87,3.49-11.91,1.33-5.69,2.62-11.4,4.01-17.07.94-3.84.89-6.3,2.12-11.43,1.23-7.68,2.69-30.22,2.4-35.45-.13-2.37-.19-2.32-2.53-2.59-7.11-1.74-11.64-2.04-19.1-2.19-3.8-.32-55.62.86-57.27.81ZM400.48,264.76c6.43-6.22,12.79-12.52,19.17-18.8.15-.15.27-.32.4-.48,4.51-5.58,9.26-10.99,12.95-17.19,3.67-6.17,7.46-12.27,8.95-19.51.72-3.51,2.71-6.42,6.15-7.76,2.37-.92,4.96-1.29,7.41-2.04,3.04-.92,6.22-1.61,9-3.06,3.93-2.06,7.59-4.68,11.3-7.16,2.76-1.84,5.4-3.84,7.37-6.63,3.87-5.47,7.04-11.32,9.61-17.52,3.25-7.84,5.28-16.07,7.32-24.26,2.26-9.08,3.06-18.37,2.01-27.72-.19-7.45-1.11-14.1-2.11-21.45-.74-4.78-3.41-11.13-6.44-15.74-1.43-2.18-2.84-4.37-4.32-6.52-3.62-5.24-8.16-9.46-13.87-12.26-5.85-2.88-11.71-5.77-17.69-8.36-11.05-4.77-22.56-8.19-34.24-10.89-6.82-1.57-33.48-5.25-43.51-6.19-6.47-.68-63.5-2.04-73.75-2.03-7.76,0-15.51-.45-23.27-.6-10.55-.21-21.1-.27-31.65-.5-8.96-.2-101.6,4.43-105.08,4.83-3.07.36-39.37,3.42-43.8,3.78-1.55.03-3.95.74-5.9,1.08-.81.14-8.48,2.54-11.76,4.62-10.44,6.58-18.8,15.31-25.42,25.82-3.82,6.06-6.83,12.5-8.58,19.39-1.9,7.47-3.39,15.08-4.51,22.71-.82,5.56-.67,17.37.29,21.29s3.77,8.96,4.77,10.59,3.48,4.45,5.28,6.87c3.93,5.29,9.15,9.05,14.78,12.2,4.55,2.55,9.61,3.45,14.71,4.51,5.93,1.23,11.87,1.38,17.82,1.85,1.65.13,18.51,1.62,25.3,1.83,9.09.29,18.19.09,27.29.04,9.31-.05,89.97,1.87,97.11,2.07,6.31.18,12.62.39,18.92.65,8.48.35,56.39.47,61.15.34,10.14-.27,20.29-.75,30.43-.9,8.28-.12,16.57.11,24.86.2,6.86.08,13.57,1.1,20.13,3.19,2.19.7,3.9,2,5.18,3.79,4.12,5.76,5.2,12.16,3.51,19.03-1.09,4.43-2.31,8.83-3.44,13.25-.26,1-3.68,16.49-4.47,18.76-1.32,3.81-2.62,7.64-3.92,11.46-.3.88-.51,1.8-.85,2.67-1.4,3.56-2.11,7.33-3.99,10.75-2.5,4.54-3.56,10.69-6.83,14.88-.37.47,4.06-2.8,6.22-4.88Z"/>
    <path class="st0" d="M211.42,130.51c2.55-1.64,3.8-3.71,5.03-5.76,3.63-6.07,7.17-12.19,10.84-18.24,1.42-2.34,2.98-4.62,4.71-6.74.63-.77,1.91-1.09,2.96-1.4,2.59-.77,5.18-.65,7.7.38,1.22.5,1.73,1.23,1.48,2.69-.69,3.94-1.24,7.91-1.72,11.89-.64,5.34-1.19,10.69-1.73,16.03-.11,1.08-.02,2.17-.02,3.75,2.38-1.46,3.48-3.3,4.64-5,1-1.46,1.87-2.99,2.62-4.59,2.29-4.88,4.62-9.75,6.72-14.72,2.5-5.91,4.46-12.06,7.23-17.84,3.09-6.45,6.79-12.6,10.26-18.86.96-1.73,2.31-5.01,3.16-5.29s8.77,4.09,8.95,4.79-.81,2.61-1.29,3.85-14.83,35.33-15.77,38.47c-1.93,6.39-5.5,12.24-9.67,17.34-2.14,2.61-3.78,4.84-6.29,7.36-2.4,2.83-5.73,4.14-9.36,4.44-.5.04-.81.05-1.52-.1-5.43-2.16-10.36-4.88-12.22-11.02-.17-.57-.45-1.12-.86-2.15-1.61,1.71-5.03,5.59-5.46,6.06-3.88,4.25-7.58,4.82-13.2,2.1-2.56-1.24-4.77-3.06-6.45-5.35s-2.79-4.61-2.82-7.51c-.06-4.68.5-9.19,1.86-13.72,2.75-9.15,6.83-17.68,11.17-26.13,1.39-2.7,2.64-5.48,3.98-8.2.23-.46.51-.95.89-1.28,1.87-1.67,7.42-1.51,9.21.23,1.53,1.48,1.77,2.66.97,4.56-2.33,5.54-4.66,11.07-6.99,16.61-2.12,5.04-4.29,10.06-6.35,15.12-2,4.9-3.7,9.89-3.25,15.31.07.86.34,1.71.6,2.94Z"/>
    <path class="st0" d="M105.56,61.95c1.03.18,2.14.4,3.27.57,3.97.57,5.98,2.85,6.29,6.93.31,4.08-.72,7.98-1.58,11.87-1.27,5.75-2.89,11.43-4.35,17.14-.12.49-.13,1.01-.22,1.71.83.11,1.55.33,2.23.26,6.5-.6,12.99-1.26,19.49-1.87,1.04-.1,1.76-.34,2.1-1.48,1.87-6.35,4.2-12.6,5.6-19.05,1.34-6.16,4.8-11.17,7.52-16.6.14-.28.33-.54.52-.79,1.3-1.64,2.09-1.86,3.71-.6,1.32,1.03,2.49,2.28,3.58,3.56,1.23,1.46,1.53,3.09.77,4.99-2.92,7.26-4.59,14.86-6.21,22.49-1.68,7.93-3.98,15.69-7.13,23.18-2.2,5.23-4.19,10.89-6.27,16.21-.79,1.74-.87,3.54-3.61,3.85s-4.72-1.62-5.56-3.33c-1.16-2.38-.88-6.11-.15-8.94.95-3.66,1.77-7.36,2.63-11.05.46-2-.52-2.97-2.5-2.53-6.45,1.43-12.88,2.96-19.36,4.21-1.93.37-2.77,1.25-3.55,2.96-2.73,6.05-5.53,12.09-8.63,17.96-1.56,2.95-3.77,5.58-5.81,8.26-.9,1.18-4.23,1.44-5.11.39-.51-.61-.84-1.78-.62-2.51.91-3.01,2.12-5.92,3.1-8.91,1.74-5.3,3.38-10.64,5.1-15.94,1.04-3.22.99-3.55-1.62-5.65-1.12-.9-2.57-1.51-2.8-3.52,2.2-.71,4.35-1.51,6.55-2.07,1.3-.33,1.97-.96,2.34-2.22,1.54-5.26,3.09-10.52,4.74-15.74,1.11-3.51,2.43-6.96,3.58-10.47.72-2.19,1.55-4.39,1.9-6.65.32-2.09.07-4.28.07-6.63Z"/>
    <path class="st0" d="M179.13,72.61c4.29.99,8.71,3.23,9.15,3.47,2.77,1.5,5.59,2.94,8.24,4.63,3.07,1.96,3.74,3.65,2.84,7.09-1.51,5.79-2.51,11.72-4.87,17.3-2.17,5.13-3.75,10.51-6.04,15.58-3.53,7.8-9.12,13.94-16.62,18.13-4.81,2.69-9.84,2.9-14.84.23-1.33-.71-9.17-7.46-10.02-8.77-1.58-2.43-2.29-5.96-1.73-8.79.38-1.95.59-3.61,1.42-6.32,1.56-3.75,5.99-10.94,8.92-15.7,4.54-7.36,9.27-14.53,15.62-20.58,2.41-2.3,4.65-4.66,7.94-6.27ZM187.15,91.22c.57-2.15.31-4.19-.49-6.18-1.17-2.91-3.78-3.53-5.94-1.29-2.77,2.88-5.44,5.85-8.05,8.87-6.74,7.8-11.62,16.78-16.07,25.99-1.63,3.38-2.08,7.07-1.48,10.82.42,2.62,2.39,3.72,4.84,2.71.68-.28,1.42-.56,1.94-1.04,4.72-4.35,9.81-8.4,12.94-14.18,3.15-5.82,6.86-11.35,9.19-17.6.05-.12,2.39-5.4,3.11-8.1Z"/>
    <path class="st0" d="M316.37,83.86c-2.66.9-5.31,1.8-7.97,2.7-2.78.94-5.5,2.28-8.36,2.67-2.28.31-4.78-.3-7.06-.94-2.7-.75-4.19-3.25-6.98-5.17,1.27-.24,1.75-.44,2.2-.4,5.17.45,9.98-1.29,14.9-2.4,5.24-1.18,10.49-2.29,15.77-3.27,4.03-.75,8.11-1.21,12.15-1.87,2.19-.36,3.64.46,4.51,2.29-2.43,2.11-4.88,4.04-7.09,6.23-1.56,1.54-2.74,3.44-4.16,5.13-.72.87-1.61,1.6-2.38,2.42-3.8,4.07-7.18,8.46-10.52,12.92-4.66,6.23-9.76,12.13-15.12,18.73,2.43-.75,4.32-1.38,6.22-1.92,5.67-1.61,11.31-3.33,17.03-4.73,3.97-.97,8.07-1.45,12.09-2.22,1.61-.31,2.28.63,3.08,2.21-1.52.9-2.99,1.85-4.52,2.67-1.2.64-19.76,10.95-27.91,15.31-3.31,1.77-6.97,2.93-10.54,4.18-1.87.65-3.86.95-5.82,1.34-3.52.7-6.88.11-10.16-1.26-1.61-.67-3.32-1.12-5.21-1.75.37-.54.64-1.08,1.05-1.49,1.78-1.78,3.74-3.4,5.38-5.3,9.53-11.01,18.94-22.13,28.49-33.13,3.45-3.97,7.17-7.72,10.75-11.57.2-.21.3-.52.45-.78-.1-.2-.2-.39-.29-.59Z"/>
    <path class="st0" d="M374.93,81.35c2.48.12,4.96.26,7.44.35,3.05.12,6.1.24,9.15.27.59,0,10.01-1.03,13.1-1.8,9.98-2.49,20.15-3.33,30.35-4.03.07,0,.15.11.49.38-.58.55-1.05,1.28-1.71,1.57-2.1.93-4.3,1.65-6.42,2.53-3,1.24-6.03,2.45-8.95,3.87-4.74,2.29-9.41,4.71-14.08,7.13-.51.26-1.01.75-1.26,1.27-.6,1.23-1.19,2.49-1.55,3.8-2.47,8.97-11.85,32.77-12.89,36.15-.71,2.3-1.53,4.56-2.27,6.84-.84,2.59-1.84,5.15-2.39,7.8-1.19,2.66-1.71,3.06-3.24,4.41-1.12-.33-2.59-.26-3.67-.52-2.08-.5-3.58-.21-3.28-2.38.11-.83,4.14-20.04,6.53-28.08,1.43-4.82,3.08-9.59,4.84-14.31,1.54-4.13,3.37-8.16,5.06-12.23.32-.77.56-1.57.95-2.65-6.4-1.74-12.14-4.47-16.44-9.52l.24-.84Z"/>
    <path class="st0" d="M462.76,73.61c.35,1.38-3.68,11.41-4.58,14.31-1.44,4.61-3.16,9.13-4.84,13.66-2.45,6.61-4.96,13.19-7.46,19.78-.75,1.97-1.53,3.92-2.31,5.88-.12.29-.28.57-.42.85-1.51,3.04-2.63,5.27-4.71,7.55-1.78,1.96-5.33,1.42-6.35-1.1-.8-1.97-.91-4.16-.17-6.49,1.04-3.29,5.25-19.52,6.65-24.23.91-3.05,9.91-34.92,11.12-35.59s12.73,4,13.08,5.38Z"/>
    <path class="st0" d="M341.15,119.91c1.45-8.79,4.12-17.21,6.41-25.75,1.06-3.97,2.12-7.94,3.12-11.92.25-1,1.17-5.51,2.58-5.2,2.84.64,5.83.83,8.38,2.54,2.36,1.58,2.46,2.27,1.26,4.89-1.21,2.66-2.12,5.47-3.03,8.25-1.56,4.8-3.02,9.63-4.52,14.44-2.22,7.13-4.48,14.25-6.62,21.41-.83,2.76-2.17,5.51-3.63,8.28-1.12,2.84-2.16,3.43-3.1,5.53-.78,1.73-1.32,2.09-3.03,1.65-1.45-.37-1.66-1.43-1.47-2.7.05-.31,2.53-14.59,3.66-21.42Z"/>
    <path class="st0" d="M418.83,151.52c.41-1.57,2.67-4.42,6.23-7.12,2.04-1.55,6.21-1.25,8.43.87,1.79,1.58,2.5,3.01,3.12,5.72.36,1.74-.34,4.02-.97,4.82s-4.92,3.59-7.59,5c-2.09.9-4.15.23-6.2-1.65-1.03-1.32-2.21-2.46-2.77-3.37s-.66-2.71-.25-4.28Z"/>
  </g>
</svg>