<?xml version="1.0" encoding="utf-8"?>
<!-- Generator: Adobe Illustrator 27.7.0, SVG Export Plug-In . SVG Version: 6.00 Build 0)  -->
<svg version="1.1" id="Layer_1" xmlns="http://www.w3.org/2000/svg" xmlns:xlink="http://www.w3.org/1999/xlink" x="0px" y="0px"
	 viewBox="0 0 550.83 294.92" style="enable-background:new 0 0 550.83 294.92;" xml:space="preserve">
<path d="M320.21,188.69c-11.19-0.34-62.73-0.28-70.7-0.25c-15.43,0.06-30.85,0.18-46.28,0.1c-6.51-0.03-13.02-0.51-19.53-0.72
	c-3.31-0.11-6.63-0.04-9.94-0.11c-7.76-0.17-15.52-0.45-23.28-0.53c-10.66-0.11-21.32,0.07-31.98-0.18
	c-5.89-0.13-11.78-0.74-17.64-1.38c-5.75-0.63-11.5-1.39-17.19-2.43c-3.21-0.59-13.59-3.96-15.64-4.6
	c-1.18-0.37-2.34-0.83-3.46-1.36c-11.63-5.58-20.49-14.09-26.16-25.8c-2.13-4.4-4.18-8.95-5.38-13.66
	c-0.78-3.07-1.79-11.94-1.92-12.97c-0.69-5.18,0.81-10.37,0.95-15.57c0.01-0.42,0.05-0.84,0.14-1.25c1.59-7.77,3.01-15.58,4.83-23.3
	c1.83-7.77,5.03-15.03,9.33-21.75c1.95-3.05,3.97-6.06,5.97-9.07c2.09-3.15,5.12-5.39,7.71-8.05c4.52-4.66,9.48-8.8,15.26-11.72
	c9.07-4.59,18.48-8.33,28.42-10.57c6.5-1.47,13.1-1.72,19.73-1.77c5.69-0.04,11.38-0.23,17.08-0.35c6.1-0.13,12.2-0.22,18.3-0.43
	c4.13-0.14,8.26-0.47,12.39-0.71c10.54-0.59,21.08-1.23,31.62-1.75c9.92-0.49,19.84-0.92,29.77-1.27c8.9-0.31,17.8-0.49,26.7-0.7
	c8.59-0.21,93.95,1.08,99.7,0.93c5.06-0.13,10.13,0.19,15.19,0.32c1.76,0.05,3.52,0.07,5.28,0.21c6.25,0.51,12.5,1.03,18.74,1.61
	c4.22,0.39,8.43,0.81,12.63,1.36c5.22,0.68,10.42,1.49,15.63,2.28c2.74,0.41,15.08,3.55,18.59,4.37c1.23,0.29,23,6.63,26.44,8.11
	c10.74,4.61,21.25,9.6,29.8,18.06c4.77,4.72,8.88,9.8,12.45,15.51c4.93,7.9,8.28,31.13,8.32,39.7c-1.09,10.61-4.1,20.82-6.58,31.15
	c-1.96,8.15-4.82,15.97-7.51,23.86c-2.28,6.7-6.18,12.52-9.72,18.54c-1.06,1.8-2.03,3.66-3.25,5.35
	c-3.83,5.31-8.74,9.42-14.14,13.03c-6.29,4.2-13.32,6.51-20.37,8.88c-2.88,0.97-5.57,2.59-8.27,4.04
	c-0.76,0.41-4.37,7.94-5.78,10.84c-1.69,3.46-3.3,7.02-5.44,10.19c-3.32,4.91-6.75,9.83-10.71,14.21
	c-4.8,5.32-10.18,10.11-15.34,15.09c-2.32,2.23-4.62,4.51-7.14,6.5c-5.61,4.42-12.26,6.89-18.65,9.84c-1.11,0.51-2.4,0.6-3.52,1.09
	c-1.18,0.51-3.96,1.35-4.8,0.14c-0.85-1.23,0.12-3.1,1.06-4.65c1.72-2.85,3.58-5.62,5.17-8.54c2-3.69,2.55-7.87,3.49-11.91
	c1.33-5.69,2.62-11.4,4.01-17.07c0.94-3.84,0.89-6.3,2.12-11.43c1.23-7.68,2.69-30.22,2.4-35.45c-0.13-2.37-0.19-2.32-2.53-2.59
	c-7.11-1.74-11.64-2.04-19.1-2.19C373.68,187.56,321.86,188.74,320.21,188.69z M400.48,264.76c6.43-6.22,12.79-12.52,19.17-18.8
	c0.15-0.15,0.27-0.32,0.4-0.48c4.51-5.58,9.26-10.99,12.95-17.19c3.67-6.17,7.46-12.27,8.95-19.51c0.72-3.51,2.71-6.42,6.15-7.76
	c2.37-0.92,4.96-1.29,7.41-2.04c3.04-0.92,6.22-1.61,9-3.06c3.93-2.06,7.59-4.68,11.3-7.16c2.76-1.84,5.4-3.84,7.37-6.63
	c3.87-5.47,7.04-11.32,9.61-17.52c3.25-7.84,5.28-16.07,7.32-24.26c2.26-9.08,3.06-18.37,2.01-27.72
	c-0.19-7.45-1.11-14.1-2.11-21.45c-0.74-4.78-3.41-11.13-6.44-15.74c-1.43-2.18-2.84-4.37-4.32-6.52
	c-3.62-5.24-8.16-9.46-13.87-12.26c-5.85-2.88-11.71-5.77-17.69-8.36c-11.05-4.77-22.56-8.19-34.24-10.89
	c-6.82-1.57-33.48-5.25-43.51-6.19c-6.47-0.68-63.5-2.04-73.75-2.03c-7.76,0.01-15.51-0.45-23.27-0.6
	c-10.55-0.21-21.1-0.27-31.65-0.5c-8.96-0.2-101.6,4.43-105.08,4.83c-3.07,0.36-39.37,3.42-43.8,3.78c-1.55,0.03-3.95,0.74-5.9,1.08
	c-0.81,0.14-8.48,2.54-11.76,4.62c-10.44,6.58-18.8,15.31-25.42,25.82c-3.82,6.06-6.83,12.5-8.58,19.39
	c-1.9,7.47-3.39,15.08-4.51,22.71c-0.82,5.56-0.67,17.37,0.29,21.29c0.96,3.91,3.77,8.96,4.77,10.59c1,1.63,3.48,4.45,5.28,6.87
	c3.93,5.29,9.15,9.05,14.78,12.2c4.55,2.55,9.61,3.45,14.71,4.51c5.93,1.23,11.87,1.38,17.82,1.85c1.65,0.13,18.51,1.62,25.3,1.83
	c9.09,0.29,18.19,0.09,27.29,0.04c9.31-0.05,89.97,1.87,97.11,2.07c6.31,0.18,12.62,0.39,18.92,0.65
	c8.48,0.35,56.39,0.47,61.15,0.34c10.14-0.27,20.29-0.75,30.43-0.9c8.28-0.12,16.57,0.11,24.86,0.2c6.86,0.08,13.57,1.1,20.13,3.19
	c2.19,0.7,3.9,2,5.18,3.79c4.12,5.76,5.2,12.16,3.51,19.03c-1.09,4.43-2.31,8.83-3.44,13.25c-0.26,1-3.68,16.49-4.47,18.76
	c-1.32,3.81-2.62,7.64-3.92,11.46c-0.3,0.88-0.51,1.8-0.85,2.67c-1.4,3.56-2.11,7.33-3.99,10.75c-2.5,4.54-3.56,10.69-6.83,14.88
	C393.9,270.11,398.33,266.85,400.48,264.76z"/>
<path d="M597.99,599.01c0.22,1.48,0.43,2.96,0.65,4.44c-1.44,0.24-1.47,0.24-1.41-1.19c0.04-1.08,0.14-2.16,0.22-3.24
	C597.62,599.02,597.8,599.01,597.99,599.01z"/>
<path d="M-16.83-216.73c0.43,0,0.87-0.06,1.28,0.03c0.17,0.04,0.28,0.38,0.42,0.59c-0.18,0.09-0.39,0.28-0.52,0.24
	c-0.44-0.15-0.86-0.38-1.28-0.58C-16.9-216.55-16.87-216.64-16.83-216.73z"/>
<path d="M211.42,130.51c2.55-1.64,3.8-3.71,5.03-5.76c3.63-6.07,7.17-12.19,10.84-18.24c1.42-2.34,2.98-4.62,4.71-6.74
	c0.63-0.77,1.91-1.09,2.96-1.4c2.59-0.77,5.18-0.65,7.7,0.38c1.22,0.5,1.73,1.23,1.48,2.69c-0.69,3.94-1.24,7.91-1.72,11.89
	c-0.64,5.34-1.19,10.69-1.73,16.03c-0.11,1.08-0.02,2.17-0.02,3.75c2.38-1.46,3.48-3.3,4.64-5c1-1.46,1.87-2.99,2.62-4.59
	c2.29-4.88,4.62-9.75,6.72-14.72c2.5-5.91,4.46-12.06,7.23-17.84c3.09-6.45,6.79-12.6,10.26-18.86c0.96-1.73,2.31-5.01,3.16-5.29
	s8.77,4.09,8.95,4.79c0.19,0.71-0.81,2.61-1.29,3.85s-14.83,35.33-15.77,38.47c-1.93,6.39-5.5,12.24-9.67,17.34
	c-2.14,2.61-3.78,4.84-6.29,7.36c-2.4,2.83-5.73,4.14-9.36,4.44c-0.5,0.04-0.81,0.05-1.52-0.1c-5.43-2.16-10.36-4.88-12.22-11.02
	c-0.17-0.57-0.45-1.12-0.86-2.15c-1.61,1.71-5.03,5.59-5.46,6.06c-3.88,4.25-7.58,4.82-13.2,2.1c-2.56-1.24-4.77-3.06-6.45-5.35
	c-1.62-2.2-2.79-4.61-2.82-7.51c-0.06-4.68,0.5-9.19,1.86-13.72c2.75-9.15,6.83-17.68,11.17-26.13c1.39-2.7,2.64-5.48,3.98-8.2
	c0.23-0.46,0.51-0.95,0.89-1.28c1.87-1.67,7.42-1.51,9.21,0.23c1.53,1.48,1.77,2.66,0.97,4.56c-2.33,5.54-4.66,11.07-6.99,16.61
	c-2.12,5.04-4.29,10.06-6.35,15.12c-2,4.9-3.7,9.89-3.25,15.31C210.89,128.43,211.17,129.28,211.42,130.51z"/>
<path d="M105.56,61.95c1.03,0.18,2.14,0.4,3.27,0.57c3.97,0.57,5.98,2.85,6.29,6.93c0.31,4.08-0.72,7.98-1.58,11.87
	c-1.27,5.75-2.89,11.43-4.35,17.14c-0.12,0.49-0.13,1.01-0.22,1.71c0.83,0.11,1.55,0.33,2.23,0.26c6.5-0.6,12.99-1.26,19.49-1.87
	c1.04-0.1,1.76-0.34,2.1-1.48c1.87-6.35,4.2-12.6,5.6-19.05c1.34-6.16,4.8-11.17,7.52-16.6c0.14-0.28,0.33-0.54,0.52-0.79
	c1.3-1.64,2.09-1.86,3.71-0.6c1.32,1.03,2.49,2.28,3.58,3.56c1.23,1.46,1.53,3.09,0.77,4.99c-2.92,7.26-4.59,14.86-6.21,22.49
	c-1.68,7.93-3.98,15.69-7.13,23.18c-2.2,5.23-4.19,10.89-6.27,16.21c-0.79,1.74-0.87,3.54-3.61,3.85c-2.74,0.31-4.72-1.62-5.56-3.33
	c-1.16-2.38-0.88-6.11-0.15-8.94c0.95-3.66,1.77-7.36,2.63-11.05c0.46-2-0.52-2.97-2.5-2.53c-6.45,1.43-12.88,2.96-19.36,4.21
	c-1.93,0.37-2.77,1.25-3.55,2.96c-2.73,6.05-5.53,12.09-8.63,17.96c-1.56,2.95-3.77,5.58-5.81,8.26c-0.9,1.18-4.23,1.44-5.11,0.39
	c-0.51-0.61-0.84-1.78-0.62-2.51c0.91-3.01,2.12-5.92,3.1-8.91c1.74-5.3,3.38-10.64,5.1-15.94c1.04-3.22,0.99-3.55-1.62-5.65
	c-1.12-0.9-2.57-1.51-2.8-3.52c2.2-0.71,4.35-1.51,6.55-2.07c1.3-0.33,1.97-0.96,2.34-2.22c1.54-5.26,3.09-10.52,4.74-15.74
	c1.11-3.51,2.43-6.96,3.58-10.47c0.72-2.19,1.55-4.39,1.9-6.65C105.82,66.49,105.56,64.31,105.56,61.95z"/>
<path d="M179.13,72.61c4.29,0.99,8.71,3.23,9.15,3.47c2.77,1.5,5.59,2.94,8.24,4.63c3.07,1.96,3.74,3.65,2.84,7.09
	c-1.51,5.79-2.51,11.72-4.87,17.3c-2.17,5.13-3.75,10.51-6.04,15.58c-3.53,7.8-9.12,13.94-16.62,18.13
	c-4.81,2.69-9.84,2.9-14.84,0.23c-1.33-0.71-9.17-7.46-10.02-8.77c-1.58-2.43-2.29-5.96-1.74-8.79c0.38-1.95,0.59-3.61,1.42-6.32
	c1.56-3.75,5.99-10.94,8.92-15.7c4.54-7.36,9.27-14.53,15.62-20.58C173.61,76.58,175.84,74.22,179.13,72.61z M187.15,91.22
	c0.57-2.15,0.31-4.19-0.49-6.18c-1.17-2.91-3.78-3.53-5.94-1.29c-2.77,2.88-5.44,5.85-8.05,8.87c-6.74,7.8-11.62,16.78-16.07,25.99
	c-1.63,3.38-2.08,7.07-1.48,10.82c0.42,2.62,2.39,3.72,4.84,2.71c0.68-0.28,1.42-0.56,1.94-1.04c4.72-4.35,9.81-8.4,12.94-14.18
	c3.15-5.82,6.86-11.35,9.19-17.6C184.08,99.2,186.43,93.93,187.15,91.22z"/>
<path d="M316.37,83.86c-2.66,0.9-5.31,1.8-7.97,2.7c-2.78,0.94-5.5,2.28-8.36,2.67c-2.28,0.31-4.78-0.3-7.06-0.94
	c-2.7-0.75-4.19-3.25-6.98-5.17c1.27-0.24,1.75-0.44,2.2-0.4c5.17,0.45,9.98-1.29,14.9-2.4c5.24-1.18,10.49-2.29,15.77-3.27
	c4.03-0.75,8.11-1.21,12.15-1.87c2.19-0.36,3.64,0.46,4.51,2.29c-2.43,2.11-4.88,4.04-7.09,6.23c-1.56,1.54-2.74,3.44-4.16,5.13
	c-0.72,0.87-1.61,1.6-2.38,2.42c-3.8,4.07-7.18,8.46-10.52,12.92c-4.66,6.23-9.76,12.13-15.12,18.73c2.43-0.75,4.32-1.38,6.22-1.92
	c5.67-1.61,11.31-3.33,17.03-4.73c3.97-0.97,8.07-1.45,12.09-2.22c1.61-0.31,2.28,0.63,3.08,2.21c-1.52,0.9-2.99,1.85-4.52,2.67
	c-1.2,0.64-19.76,10.95-27.91,15.31c-3.31,1.77-6.97,2.93-10.54,4.18c-1.87,0.65-3.86,0.95-5.82,1.34
	c-3.52,0.7-6.88,0.11-10.16-1.26c-1.61-0.67-3.32-1.12-5.21-1.75c0.37-0.54,0.64-1.08,1.05-1.49c1.78-1.78,3.74-3.4,5.38-5.3
	c9.53-11.01,18.94-22.13,28.49-33.13c3.45-3.97,7.17-7.72,10.75-11.57c0.2-0.21,0.3-0.52,0.45-0.78
	C316.56,84.25,316.47,84.05,316.37,83.86z"/>
<path d="M374.93,81.35c2.48,0.12,4.96,0.26,7.44,0.35c3.05,0.12,6.1,0.24,9.15,0.27c0.59,0.01,10.01-1.03,13.1-1.8
	c9.98-2.49,20.15-3.33,30.35-4.03c0.07,0,0.15,0.11,0.49,0.38c-0.58,0.55-1.05,1.28-1.71,1.57c-2.1,0.93-4.3,1.65-6.42,2.53
	c-3,1.24-6.03,2.45-8.95,3.87c-4.74,2.29-9.41,4.71-14.08,7.13c-0.51,0.26-1.01,0.75-1.26,1.27c-0.6,1.23-1.19,2.49-1.55,3.8
	c-2.47,8.97-11.85,32.77-12.89,36.15c-0.71,2.3-1.53,4.56-2.27,6.84c-0.84,2.59-1.84,5.15-2.39,7.8c-1.19,2.66-1.71,3.06-3.24,4.41
	c-1.12-0.33-2.59-0.26-3.67-0.52c-2.08-0.5-3.58-0.21-3.28-2.38c0.11-0.83,4.14-20.04,6.53-28.08c1.43-4.82,3.08-9.59,4.84-14.31
	c1.54-4.13,3.37-8.16,5.06-12.23c0.32-0.77,0.56-1.57,0.95-2.65c-6.4-1.74-12.14-4.47-16.44-9.52
	C374.77,81.91,374.85,81.63,374.93,81.35z"/>
<path d="M462.76,73.61c0.35,1.38-3.68,11.41-4.58,14.31c-1.44,4.61-3.16,9.13-4.84,13.66c-2.45,6.61-4.96,13.19-7.46,19.78
	c-0.75,1.97-1.53,3.92-2.31,5.88c-0.12,0.29-0.28,0.57-0.42,0.85c-1.51,3.04-2.63,5.27-4.71,7.55c-1.78,1.96-5.33,1.42-6.35-1.1
	c-0.8-1.97-0.91-4.16-0.18-6.49c1.04-3.29,5.25-19.52,6.65-24.23c0.91-3.05,9.91-34.92,11.12-35.59S462.41,72.23,462.76,73.61z"/>
<path d="M341.15,119.91c1.45-8.79,4.12-17.21,6.41-25.75c1.06-3.97,2.12-7.94,3.12-11.92c0.25-1,1.17-5.51,2.58-5.2
	c2.84,0.64,5.83,0.83,8.38,2.54c2.36,1.58,2.46,2.27,1.26,4.89c-1.21,2.66-2.12,5.47-3.03,8.25c-1.56,4.8-3.02,9.63-4.52,14.44
	c-2.22,7.13-4.48,14.25-6.62,21.41c-0.83,2.76-2.17,5.51-3.63,8.28c-1.12,2.84-2.16,3.43-3.1,5.53c-0.77,1.73-1.32,2.09-3.03,1.65
	c-1.45-0.37-1.66-1.43-1.47-2.7C337.54,141.03,340.02,126.75,341.15,119.91z"/>
<path d="M418.83,151.52c0.41-1.57,2.67-4.42,6.23-7.12c2.04-1.55,6.21-1.25,8.43,0.87c1.79,1.58,2.5,3.01,3.12,5.72
	c0.36,1.74-0.34,4.02-0.97,4.82s-4.92,3.59-7.59,5c-2.09,0.9-4.15,0.23-6.2-1.65c-1.03-1.32-2.21-2.46-2.77-3.37
	S418.42,153.09,418.83,151.52z"/>
</svg>
